<mxfile host="65bd71144e">
    <diagram id="MGEGrjkvT5RQ65qvYmd9" name="Page-1">
        <mxGraphModel dx="1001" dy="769" grid="1" gridSize="10" guides="1" tooltips="1" connect="1" arrows="1" fold="1" page="1" pageScale="1" pageWidth="850" pageHeight="1100" math="0" shadow="0">
            <root>
                <mxCell id="0"/>
                <mxCell id="1" parent="0"/>
                <mxCell id="5" value="" style="edgeStyle=none;html=1;strokeWidth=1;fontSize=16;" edge="1" parent="1" source="2" target="3">
                    <mxGeometry relative="1" as="geometry"/>
                </mxCell>
                <mxCell id="2" value="Face Detection&lt;br style=&quot;font-size: 16px;&quot;&gt;(e.g. Viola-Jones)" style="rounded=1;whiteSpace=wrap;html=1;fillColor=#d5e8d4;strokeColor=#82b366;strokeWidth=1;fontSize=16;" vertex="1" parent="1">
                    <mxGeometry x="40" y="157" width="200" height="103" as="geometry"/>
                </mxCell>
                <mxCell id="6" value="" style="edgeStyle=none;html=1;strokeWidth=1;fontSize=16;" edge="1" parent="1" source="3" target="4">
                    <mxGeometry relative="1" as="geometry"/>
                </mxCell>
                <mxCell id="3" value="Feature Extraction and Representation&lt;br style=&quot;font-size: 16px;&quot;&gt;(e.g. Gabor wavelets)" style="rounded=1;whiteSpace=wrap;html=1;fillColor=#d5e8d4;strokeColor=#82b366;strokeWidth=1;fontSize=16;" vertex="1" parent="1">
                    <mxGeometry x="320" y="160" width="200" height="100" as="geometry"/>
                </mxCell>
                <mxCell id="4" value="Facial Expression Classification&lt;br style=&quot;font-size: 16px;&quot;&gt;(e.g. SVM, KNN, RF)" style="rounded=1;whiteSpace=wrap;html=1;fillColor=#d5e8d4;strokeColor=#82b366;strokeWidth=1;fontSize=16;" vertex="1" parent="1">
                    <mxGeometry x="600" y="160" width="200" height="100" as="geometry"/>
                </mxCell>
            </root>
        </mxGraphModel>
    </diagram>
</mxfile>